<svg xmlns="http://www.w3.org/2000/svg" xmlns:xlink="http://www.w3.org/1999/xlink" width="31" height="31" viewBox="0 0 31 31">
  <defs>
    <style>
      .cls-1 {
        clip-path: url(#clip-Discord);
      }

      .cls-2 {
        fill: #fff;
      }
    </style>
    <clipPath id="clip-Discord">
      <rect width="31" height="31"/>
    </clipPath>
  </defs>
  <g id="Discord" class="cls-1">
    <path id="Path_1497" data-name="Path 1497" class="cls-2" d="M24.21,13.617a23.277,23.277,0,0,0-5.9-1.853,17.288,17.288,0,0,0-.755,1.568,21.65,21.65,0,0,0-6.535,0,16.761,16.761,0,0,0-.764-1.568,23.2,23.2,0,0,0-5.9,1.857A24.729,24.729,0,0,0,.121,30.18a23.574,23.574,0,0,0,7.232,3.706A17.985,17.985,0,0,0,8.9,31.335a15.229,15.229,0,0,1-2.439-1.187c.2-.152.4-.31.6-.473a16.665,16.665,0,0,0,14.459,0c.2.163.4.321.6.473a15.191,15.191,0,0,1-2.443,1.189,17.905,17.905,0,0,0,1.549,2.551,23.526,23.526,0,0,0,7.236-3.708A24.7,24.7,0,0,0,24.21,13.617ZM9.542,26.847a2.774,2.774,0,0,1-2.569-2.923A2.76,2.76,0,0,1,9.542,21a2.742,2.742,0,0,1,2.569,2.925A2.756,2.756,0,0,1,9.542,26.847Zm9.5,0a2.774,2.774,0,0,1-2.569-2.923A2.76,2.76,0,0,1,19.038,21a2.742,2.742,0,0,1,2.569,2.925A2.758,2.758,0,0,1,19.038,26.847Z" transform="translate(1 -7.765)"/>
  </g>
</svg>
