<svg xmlns="http://www.w3.org/2000/svg" xmlns:xlink="http://www.w3.org/1999/xlink" width="31" height="31" viewBox="0 0 31 31">
  <defs>
    <style>
      .cls-1 {
        clip-path: url(#clip-Twitter);
      }

      .cls-2 {
        fill: #fff;
      }
    </style>
    <clipPath id="clip-Twitter">
      <rect width="31" height="31"/>
    </clipPath>
  </defs>
  <g id="Twitter" class="cls-1">
    <path id="Icon_awesome-twitter" data-name="Icon awesome-twitter" class="cls-2" d="M23.5,8.683c.017.233.017.465.017.7A15.17,15.17,0,0,1,8.244,24.655,15.171,15.171,0,0,1,0,22.245a11.106,11.106,0,0,0,1.3.066,10.751,10.751,0,0,0,6.665-2.294,5.378,5.378,0,0,1-5.019-3.723,6.77,6.77,0,0,0,1.014.083A5.678,5.678,0,0,0,5.368,16.2a5.369,5.369,0,0,1-4.3-5.269V10.86a5.407,5.407,0,0,0,2.427.681,5.376,5.376,0,0,1-1.662-7.18A15.26,15.26,0,0,0,12.9,9.979a6.06,6.06,0,0,1-.133-1.23,5.374,5.374,0,0,1,9.291-3.673,10.569,10.569,0,0,0,3.407-1.3A5.354,5.354,0,0,1,23.1,6.738a10.762,10.762,0,0,0,3.091-.831A11.54,11.54,0,0,1,23.5,8.683Z" transform="translate(2 1.619)"/>
  </g>
</svg>
